<mxfile host="app.diagrams.net" modified="2023-12-24T11:25:21.052Z" agent="Mozilla/5.0 (Windows NT 10.0; Win64; x64) AppleWebKit/537.36 (KHTML, like Gecko) Chrome/120.0.0.0 Safari/537.36" etag="BwgxtMpjbnxeE83kZPWN" version="22.1.11" type="device">
  <diagram id="R2lEEEUBdFMjLlhIrx00" name="Page-1">
    <mxGraphModel dx="8878" dy="2260" grid="1" gridSize="3" guides="1" tooltips="1" connect="1" arrows="1" fold="1" page="1" pageScale="1" pageWidth="2339" pageHeight="3300" math="0" shadow="0" extFonts="Permanent Marker^https://fonts.googleapis.com/css?family=Permanent+Marker">
      <root>
        <mxCell id="0" />
        <mxCell id="1" parent="0" />
        <mxCell id="m8tGLTJIxdYSyH3AfNJf-68" value="" style="group;rotation=90;fontFamily=Arial;fontStyle=2" parent="1" vertex="1" connectable="0">
          <mxGeometry x="-2625" y="519" width="3250" height="2911.9" as="geometry" />
        </mxCell>
        <mxCell id="bOlvTl43doBLw3R69mOg-1" value="" style="rounded=0;whiteSpace=wrap;html=1;fillColor=none;rotation=0;fontFamily=Arial;fontStyle=2" parent="m8tGLTJIxdYSyH3AfNJf-68" vertex="1">
          <mxGeometry x="468" y="1959" width="318" height="811" as="geometry" />
        </mxCell>
        <mxCell id="m8tGLTJIxdYSyH3AfNJf-2" value="" style="group;rotation=90;fontFamily=Arial;fontStyle=2" parent="m8tGLTJIxdYSyH3AfNJf-68" vertex="1" connectable="0">
          <mxGeometry x="205" y="2316" width="728.8990000000006" height="177.16799999999967" as="geometry" />
        </mxCell>
        <mxCell id="bOlvTl43doBLw3R69mOg-2" value="" style="rounded=0;whiteSpace=wrap;html=1;fillColor=none;rotation=90;fontFamily=Arial;fontStyle=2" parent="m8tGLTJIxdYSyH3AfNJf-2" vertex="1">
          <mxGeometry width="728.35" height="177.165" as="geometry" />
        </mxCell>
        <mxCell id="UN5E2BRM_m0n_mUQd9ct-3" value="" style="rounded=0;whiteSpace=wrap;html=1;fillColor=none;rotation=90;fontFamily=Arial;fontStyle=2" parent="m8tGLTJIxdYSyH3AfNJf-2" vertex="1">
          <mxGeometry x="391" y="-271" width="27.558999999999997" height="19.685" as="geometry" />
        </mxCell>
        <mxCell id="UN5E2BRM_m0n_mUQd9ct-4" value="" style="rounded=0;whiteSpace=wrap;html=1;fillColor=none;rotation=90;fontFamily=Arial;fontStyle=2" parent="m8tGLTJIxdYSyH3AfNJf-2" vertex="1">
          <mxGeometry x="371" y="-271" width="27.558999999999997" height="19.685" as="geometry" />
        </mxCell>
        <mxCell id="UN5E2BRM_m0n_mUQd9ct-5" value="" style="rounded=0;whiteSpace=wrap;html=1;fillColor=none;rotation=90;fontFamily=Arial;fontStyle=2" parent="m8tGLTJIxdYSyH3AfNJf-2" vertex="1">
          <mxGeometry x="411" y="-271" width="27.558999999999997" height="19.685" as="geometry" />
        </mxCell>
        <mxCell id="UN5E2BRM_m0n_mUQd9ct-9" value="" style="rounded=0;whiteSpace=wrap;html=1;fillColor=none;rotation=90;fontFamily=Arial;fontStyle=2" parent="m8tGLTJIxdYSyH3AfNJf-2" vertex="1">
          <mxGeometry x="385" y="-238" width="39.37" height="19.685" as="geometry" />
        </mxCell>
        <mxCell id="UN5E2BRM_m0n_mUQd9ct-10" value="" style="rounded=0;whiteSpace=wrap;html=1;fillColor=none;rotation=90;fontFamily=Arial;fontStyle=2" parent="m8tGLTJIxdYSyH3AfNJf-2" vertex="1">
          <mxGeometry x="365" y="-238" width="39.37" height="19.685" as="geometry" />
        </mxCell>
        <mxCell id="UN5E2BRM_m0n_mUQd9ct-11" value="" style="rounded=0;whiteSpace=wrap;html=1;fillColor=none;rotation=90;fontFamily=Arial;fontStyle=2" parent="m8tGLTJIxdYSyH3AfNJf-2" vertex="1">
          <mxGeometry x="405" y="-238" width="39.37" height="19.685" as="geometry" />
        </mxCell>
        <mxCell id="UN5E2BRM_m0n_mUQd9ct-14" value="" style="rounded=0;whiteSpace=wrap;html=1;fillColor=none;rotation=90;fontFamily=Arial;fontStyle=2" parent="m8tGLTJIxdYSyH3AfNJf-2" vertex="1">
          <mxGeometry x="360" y="-173" width="90.551" height="19.685" as="geometry" />
        </mxCell>
        <mxCell id="UN5E2BRM_m0n_mUQd9ct-15" value="" style="rounded=0;whiteSpace=wrap;html=1;fillColor=none;rotation=90;fontFamily=Arial;fontStyle=2" parent="m8tGLTJIxdYSyH3AfNJf-2" vertex="1">
          <mxGeometry x="360" y="-172" width="90.551" height="19.685" as="geometry" />
        </mxCell>
        <mxCell id="UN5E2BRM_m0n_mUQd9ct-16" value="" style="rounded=0;whiteSpace=wrap;html=1;fillColor=none;rotation=90;fontFamily=Arial;fontStyle=2" parent="m8tGLTJIxdYSyH3AfNJf-2" vertex="1">
          <mxGeometry x="379" y="-173" width="90.551" height="19.685" as="geometry" />
        </mxCell>
        <mxCell id="UN5E2BRM_m0n_mUQd9ct-19" value="" style="rounded=0;whiteSpace=wrap;html=1;fillColor=none;rotation=90;fontFamily=Arial;fontStyle=2" parent="m8tGLTJIxdYSyH3AfNJf-2" vertex="1">
          <mxGeometry x="375" y="-98" width="59.055" height="19.685" as="geometry" />
        </mxCell>
        <mxCell id="UN5E2BRM_m0n_mUQd9ct-20" value="" style="rounded=0;whiteSpace=wrap;html=1;fillColor=none;rotation=90;fontFamily=Arial;fontStyle=2" parent="m8tGLTJIxdYSyH3AfNJf-2" vertex="1">
          <mxGeometry x="355" y="-98" width="59.055" height="19.685" as="geometry" />
        </mxCell>
        <mxCell id="UN5E2BRM_m0n_mUQd9ct-21" value="" style="rounded=0;whiteSpace=wrap;html=1;fillColor=none;rotation=90;fontFamily=Arial;fontStyle=2" parent="m8tGLTJIxdYSyH3AfNJf-2" vertex="1">
          <mxGeometry x="395" y="-98" width="59.055" height="19.685" as="geometry" />
        </mxCell>
        <mxCell id="UN5E2BRM_m0n_mUQd9ct-24" value="" style="rounded=0;whiteSpace=wrap;html=1;fillColor=none;rotation=90;fontFamily=Arial;fontStyle=2" parent="m8tGLTJIxdYSyH3AfNJf-2" vertex="1">
          <mxGeometry x="384" y="-49" width="39.37" height="19.685" as="geometry" />
        </mxCell>
        <mxCell id="UN5E2BRM_m0n_mUQd9ct-25" value="" style="rounded=0;whiteSpace=wrap;html=1;fillColor=none;rotation=90;fontFamily=Arial;fontStyle=2" parent="m8tGLTJIxdYSyH3AfNJf-2" vertex="1">
          <mxGeometry x="365" y="-49" width="39.37" height="19.685" as="geometry" />
        </mxCell>
        <mxCell id="UN5E2BRM_m0n_mUQd9ct-26" value="" style="rounded=0;whiteSpace=wrap;html=1;fillColor=none;rotation=90;fontFamily=Arial;fontStyle=2" parent="m8tGLTJIxdYSyH3AfNJf-2" vertex="1">
          <mxGeometry x="405" y="-49" width="39.37" height="19.685" as="geometry" />
        </mxCell>
        <mxCell id="UN5E2BRM_m0n_mUQd9ct-27" value="" style="rounded=0;whiteSpace=wrap;html=1;fillColor=none;rotation=90;fontFamily=Arial;fontStyle=2" parent="m8tGLTJIxdYSyH3AfNJf-2" vertex="1">
          <mxGeometry x="187" y="187" width="472.43" height="59.055" as="geometry" />
        </mxCell>
        <mxCell id="UN5E2BRM_m0n_mUQd9ct-28" value="Изм." style="text;html=1;strokeColor=none;fillColor=none;align=center;verticalAlign=middle;whiteSpace=wrap;rounded=0;fontFamily=Arial;fontSize=10;rotation=90;fontStyle=2" parent="m8tGLTJIxdYSyH3AfNJf-2" vertex="1">
          <mxGeometry x="371" y="-272" width="27.558999999999997" height="19.685" as="geometry" />
        </mxCell>
        <mxCell id="UN5E2BRM_m0n_mUQd9ct-29" value="Лист" style="text;html=1;strokeColor=none;fillColor=none;align=center;verticalAlign=middle;whiteSpace=wrap;rounded=0;fontFamily=Arial;fontSize=10;rotation=90;fontStyle=2" parent="m8tGLTJIxdYSyH3AfNJf-2" vertex="1">
          <mxGeometry x="366" y="-237" width="39.37" height="19.685" as="geometry" />
        </mxCell>
        <mxCell id="UN5E2BRM_m0n_mUQd9ct-30" value="№ докум." style="text;html=1;strokeColor=none;fillColor=none;align=center;verticalAlign=middle;whiteSpace=wrap;rounded=0;fontFamily=Arial;fontSize=10;rotation=90;fontStyle=2" parent="m8tGLTJIxdYSyH3AfNJf-2" vertex="1">
          <mxGeometry x="339" y="-172" width="90.551" height="19.68" as="geometry" />
        </mxCell>
        <mxCell id="UN5E2BRM_m0n_mUQd9ct-31" value="Подп" style="text;html=1;strokeColor=none;fillColor=none;align=center;verticalAlign=middle;whiteSpace=wrap;rounded=0;fontFamily=Arial;fontSize=10;rotation=90;fontStyle=2" parent="m8tGLTJIxdYSyH3AfNJf-2" vertex="1">
          <mxGeometry x="355" y="-99" width="59.055" height="19.68" as="geometry" />
        </mxCell>
        <mxCell id="UN5E2BRM_m0n_mUQd9ct-32" value="Дата" style="text;html=1;strokeColor=none;fillColor=none;align=center;verticalAlign=middle;whiteSpace=wrap;rounded=0;fontFamily=Arial;fontSize=10;rotation=90;fontStyle=2" parent="m8tGLTJIxdYSyH3AfNJf-2" vertex="1">
          <mxGeometry x="364" y="-49" width="39.37" height="19.685" as="geometry" />
        </mxCell>
        <mxCell id="UN5E2BRM_m0n_mUQd9ct-34" value="" style="rounded=0;whiteSpace=wrap;html=1;fillColor=none;rotation=90;fontFamily=Arial;fontStyle=2" parent="m8tGLTJIxdYSyH3AfNJf-2" vertex="1">
          <mxGeometry x="331" y="-251" width="66.929" height="19.68" as="geometry" />
        </mxCell>
        <mxCell id="UN5E2BRM_m0n_mUQd9ct-35" value="" style="rounded=0;whiteSpace=wrap;html=1;fillColor=none;rotation=90;fontFamily=Arial;fontStyle=2" parent="m8tGLTJIxdYSyH3AfNJf-2" vertex="1">
          <mxGeometry x="311" y="-251" width="66.929" height="19.68" as="geometry" />
        </mxCell>
        <mxCell id="UN5E2BRM_m0n_mUQd9ct-36" value="" style="rounded=0;whiteSpace=wrap;html=1;fillColor=none;rotation=90;fontFamily=Arial;fontStyle=2" parent="m8tGLTJIxdYSyH3AfNJf-2" vertex="1">
          <mxGeometry x="292" y="-251" width="66.929" height="19.68" as="geometry" />
        </mxCell>
        <mxCell id="UN5E2BRM_m0n_mUQd9ct-37" value="" style="rounded=0;whiteSpace=wrap;html=1;fillColor=none;rotation=90;fontFamily=Arial;fontStyle=2" parent="m8tGLTJIxdYSyH3AfNJf-2" vertex="1">
          <mxGeometry x="272" y="-251" width="66.929" height="19.68" as="geometry" />
        </mxCell>
        <mxCell id="UN5E2BRM_m0n_mUQd9ct-38" value="" style="rounded=0;whiteSpace=wrap;html=1;fillColor=none;rotation=90;fontFamily=Arial;fontStyle=2" parent="m8tGLTJIxdYSyH3AfNJf-2" vertex="1">
          <mxGeometry x="252" y="-251" width="66.929" height="19.68" as="geometry" />
        </mxCell>
        <mxCell id="UN5E2BRM_m0n_mUQd9ct-39" value="" style="rounded=0;whiteSpace=wrap;html=1;fillColor=none;rotation=90;fontFamily=Arial;fontStyle=2" parent="m8tGLTJIxdYSyH3AfNJf-2" vertex="1">
          <mxGeometry x="339" y="-173" width="90.551" height="19.68" as="geometry" />
        </mxCell>
        <mxCell id="UN5E2BRM_m0n_mUQd9ct-42" value="" style="rounded=0;whiteSpace=wrap;html=1;fillColor=none;rotation=90;fontFamily=Arial;fontStyle=2" parent="m8tGLTJIxdYSyH3AfNJf-2" vertex="1">
          <mxGeometry x="280" y="-173" width="90.551" height="19.68" as="geometry" />
        </mxCell>
        <mxCell id="UN5E2BRM_m0n_mUQd9ct-43" value="" style="rounded=0;whiteSpace=wrap;html=1;fillColor=none;rotation=90;fontFamily=Arial;fontStyle=2" parent="m8tGLTJIxdYSyH3AfNJf-2" vertex="1">
          <mxGeometry x="260" y="-173" width="90.551" height="19.68" as="geometry" />
        </mxCell>
        <mxCell id="UN5E2BRM_m0n_mUQd9ct-44" value="" style="rounded=0;whiteSpace=wrap;html=1;fillColor=none;rotation=90;fontFamily=Arial;fontStyle=2" parent="m8tGLTJIxdYSyH3AfNJf-2" vertex="1">
          <mxGeometry x="240" y="-173" width="90.551" height="19.68" as="geometry" />
        </mxCell>
        <mxCell id="UN5E2BRM_m0n_mUQd9ct-45" value="" style="rounded=0;whiteSpace=wrap;html=1;fillColor=none;rotation=90;fontFamily=Arial;fontStyle=2" parent="m8tGLTJIxdYSyH3AfNJf-2" vertex="1">
          <mxGeometry x="335" y="-98" width="59.055" height="19.68" as="geometry" />
        </mxCell>
        <mxCell id="UN5E2BRM_m0n_mUQd9ct-46" value="" style="rounded=0;whiteSpace=wrap;html=1;fillColor=none;rotation=90;fontFamily=Arial;fontStyle=2" parent="m8tGLTJIxdYSyH3AfNJf-2" vertex="1">
          <mxGeometry x="315" y="-98" width="59.055" height="19.68" as="geometry" />
        </mxCell>
        <mxCell id="UN5E2BRM_m0n_mUQd9ct-48" value="" style="rounded=0;whiteSpace=wrap;html=1;fillColor=none;rotation=90;fontFamily=Arial;fontStyle=2" parent="m8tGLTJIxdYSyH3AfNJf-2" vertex="1">
          <mxGeometry x="296" y="-98" width="59.055" height="19.68" as="geometry" />
        </mxCell>
        <mxCell id="UN5E2BRM_m0n_mUQd9ct-49" value="" style="rounded=0;whiteSpace=wrap;html=1;fillColor=none;rotation=90;fontFamily=Arial;fontStyle=2" parent="m8tGLTJIxdYSyH3AfNJf-2" vertex="1">
          <mxGeometry x="276" y="-98" width="59.055" height="19.68" as="geometry" />
        </mxCell>
        <mxCell id="UN5E2BRM_m0n_mUQd9ct-50" value="" style="rounded=0;whiteSpace=wrap;html=1;fillColor=none;rotation=90;fontFamily=Arial;fontStyle=2" parent="m8tGLTJIxdYSyH3AfNJf-2" vertex="1">
          <mxGeometry x="256" y="-98" width="59.055" height="19.68" as="geometry" />
        </mxCell>
        <mxCell id="UN5E2BRM_m0n_mUQd9ct-51" value="" style="rounded=0;whiteSpace=wrap;html=1;fillColor=none;rotation=90;fontFamily=Arial;fontStyle=2" parent="m8tGLTJIxdYSyH3AfNJf-2" vertex="1">
          <mxGeometry x="345" y="-49" width="39.37" height="19.68" as="geometry" />
        </mxCell>
        <mxCell id="UN5E2BRM_m0n_mUQd9ct-52" value="" style="rounded=0;whiteSpace=wrap;html=1;fillColor=none;rotation=90;fontFamily=Arial;fontStyle=2" parent="m8tGLTJIxdYSyH3AfNJf-2" vertex="1">
          <mxGeometry x="325" y="-49" width="39.37" height="19.68" as="geometry" />
        </mxCell>
        <mxCell id="UN5E2BRM_m0n_mUQd9ct-54" value="" style="rounded=0;whiteSpace=wrap;html=1;fillColor=none;rotation=90;fontFamily=Arial;fontStyle=2" parent="m8tGLTJIxdYSyH3AfNJf-2" vertex="1">
          <mxGeometry x="305" y="-49" width="39.37" height="19.68" as="geometry" />
        </mxCell>
        <mxCell id="UN5E2BRM_m0n_mUQd9ct-55" value="" style="rounded=0;whiteSpace=wrap;html=1;fillColor=none;rotation=90;fontFamily=Arial;fontStyle=2" parent="m8tGLTJIxdYSyH3AfNJf-2" vertex="1">
          <mxGeometry x="286" y="-49" width="39.37" height="19.68" as="geometry" />
        </mxCell>
        <mxCell id="UN5E2BRM_m0n_mUQd9ct-56" value="" style="rounded=0;whiteSpace=wrap;html=1;fillColor=none;rotation=90;fontFamily=Arial;fontStyle=2" parent="m8tGLTJIxdYSyH3AfNJf-2" vertex="1">
          <mxGeometry x="266" y="-49" width="39.37" height="19.68" as="geometry" />
        </mxCell>
        <mxCell id="UN5E2BRM_m0n_mUQd9ct-58" value="" style="rounded=0;whiteSpace=wrap;html=1;fontFamily=Arial;fontSize=10;fillColor=none;rotation=90;fontStyle=2" parent="m8tGLTJIxdYSyH3AfNJf-2" vertex="1">
          <mxGeometry x="349" y="407" width="70.866" height="19.685" as="geometry" />
        </mxCell>
        <mxCell id="UN5E2BRM_m0n_mUQd9ct-59" value="2" style="rounded=0;whiteSpace=wrap;html=1;fontFamily=Arial;fontSize=10;fillColor=none;rotation=90;fontStyle=2" parent="m8tGLTJIxdYSyH3AfNJf-2" vertex="1">
          <mxGeometry x="320" y="398" width="70.866" height="39.37" as="geometry" />
        </mxCell>
        <mxCell id="UN5E2BRM_m0n_mUQd9ct-65" value="" style="rounded=0;whiteSpace=wrap;html=1;fontFamily=Arial;fontSize=10;fillColor=none;rotation=90;fontStyle=2" parent="m8tGLTJIxdYSyH3AfNJf-2" vertex="1">
          <mxGeometry x="351" y="339" width="66.929" height="19.685" as="geometry" />
        </mxCell>
        <mxCell id="UN5E2BRM_m0n_mUQd9ct-66" value="2" style="rounded=0;whiteSpace=wrap;html=1;fontFamily=Arial;fontSize=10;fillColor=none;rotation=90;fontStyle=2" parent="m8tGLTJIxdYSyH3AfNJf-2" vertex="1">
          <mxGeometry x="322" y="329" width="66.929" height="39.37" as="geometry" />
        </mxCell>
        <mxCell id="UN5E2BRM_m0n_mUQd9ct-68" value="" style="rounded=0;whiteSpace=wrap;html=1;fontFamily=Arial;fontSize=10;fillColor=none;rotation=90;fontStyle=2" parent="m8tGLTJIxdYSyH3AfNJf-2" vertex="1">
          <mxGeometry x="355" y="276" width="59.055" height="19.685" as="geometry" />
        </mxCell>
        <mxCell id="UN5E2BRM_m0n_mUQd9ct-69" value="ч" style="rounded=0;whiteSpace=wrap;html=1;fontFamily=Arial;fontSize=10;fillColor=none;rotation=90;fontStyle=2" parent="m8tGLTJIxdYSyH3AfNJf-2" vertex="1">
          <mxGeometry x="326" y="266" width="59.05" height="39.37" as="geometry" />
        </mxCell>
        <mxCell id="UN5E2BRM_m0n_mUQd9ct-71" value="" style="rounded=0;whiteSpace=wrap;html=1;fontFamily=Arial;fontSize=10;fillColor=none;rotation=90;fontStyle=2" parent="m8tGLTJIxdYSyH3AfNJf-2" vertex="1">
          <mxGeometry x="207" y="325" width="196.85" height="59.055" as="geometry" />
        </mxCell>
        <mxCell id="UN5E2BRM_m0n_mUQd9ct-72" value="Разраб" style="text;html=1;strokeColor=none;fillColor=none;align=center;verticalAlign=middle;whiteSpace=wrap;rounded=0;fontFamily=Arial;fontSize=10;rotation=90;fontStyle=2" parent="m8tGLTJIxdYSyH3AfNJf-2" vertex="1">
          <mxGeometry x="333" y="-251" width="66.929" height="19.68" as="geometry" />
        </mxCell>
        <mxCell id="UN5E2BRM_m0n_mUQd9ct-73" value="Пров" style="text;html=1;strokeColor=none;fillColor=none;align=center;verticalAlign=middle;whiteSpace=wrap;rounded=0;fontFamily=Arial;fontSize=10;rotation=90;fontStyle=2" parent="m8tGLTJIxdYSyH3AfNJf-2" vertex="1">
          <mxGeometry x="312" y="-252" width="66.929" height="19.68" as="geometry" />
        </mxCell>
        <mxCell id="UN5E2BRM_m0n_mUQd9ct-75" value="Н. Контр." style="text;html=1;strokeColor=none;fillColor=none;align=center;verticalAlign=middle;whiteSpace=wrap;rounded=0;fontFamily=Arial;fontSize=10;rotation=90;fontStyle=2" parent="m8tGLTJIxdYSyH3AfNJf-2" vertex="1">
          <mxGeometry x="272" y="-251" width="66.929" height="19.68" as="geometry" />
        </mxCell>
        <mxCell id="UN5E2BRM_m0n_mUQd9ct-76" value="Утв." style="text;html=1;strokeColor=none;fillColor=none;align=center;verticalAlign=middle;whiteSpace=wrap;rounded=0;fontFamily=Arial;fontSize=10;rotation=90;fontStyle=2" parent="m8tGLTJIxdYSyH3AfNJf-2" vertex="1">
          <mxGeometry x="252" y="-251" width="66.929" height="19.68" as="geometry" />
        </mxCell>
        <mxCell id="UN5E2BRM_m0n_mUQd9ct-77" value="Лит." style="text;html=1;strokeColor=none;fillColor=none;align=center;verticalAlign=middle;whiteSpace=wrap;rounded=0;fontFamily=Arial;fontSize=10;rotation=90;fontStyle=2" parent="m8tGLTJIxdYSyH3AfNJf-2" vertex="1">
          <mxGeometry x="355" y="276" width="59.055" height="19.68" as="geometry" />
        </mxCell>
        <mxCell id="UN5E2BRM_m0n_mUQd9ct-78" value="Лист" style="text;html=1;strokeColor=none;fillColor=none;align=center;verticalAlign=middle;whiteSpace=wrap;rounded=0;fontFamily=Arial;fontSize=10;rotation=90;fontStyle=2" parent="m8tGLTJIxdYSyH3AfNJf-2" vertex="1">
          <mxGeometry x="351" y="339" width="66.929" height="19.68" as="geometry" />
        </mxCell>
        <mxCell id="UN5E2BRM_m0n_mUQd9ct-79" value="Листов" style="text;html=1;strokeColor=none;fillColor=none;align=center;verticalAlign=middle;whiteSpace=wrap;rounded=0;fontFamily=Arial;fontSize=10;rotation=90;fontStyle=2" parent="m8tGLTJIxdYSyH3AfNJf-2" vertex="1">
          <mxGeometry x="349" y="407" width="69.75" height="19.68" as="geometry" />
        </mxCell>
        <mxCell id="UN5E2BRM_m0n_mUQd9ct-80" value="" style="rounded=0;whiteSpace=wrap;html=1;fillColor=none;rotation=90;fontFamily=Arial;fontStyle=2" parent="m8tGLTJIxdYSyH3AfNJf-2" vertex="1">
          <mxGeometry x="319" y="-173" width="90.551" height="19.685" as="geometry" />
        </mxCell>
        <mxCell id="UN5E2BRM_m0n_mUQd9ct-81" value="Рощина А.И." style="text;html=1;strokeColor=none;fillColor=none;align=center;verticalAlign=middle;whiteSpace=wrap;rounded=0;fontFamily=Arial;fontSize=10;rotation=90;fontStyle=2" parent="m8tGLTJIxdYSyH3AfNJf-2" vertex="1">
          <mxGeometry x="301" y="-173" width="88.74" height="19.68" as="geometry" />
        </mxCell>
        <mxCell id="UN5E2BRM_m0n_mUQd9ct-82" value="Парахин К.В." style="text;html=1;strokeColor=none;fillColor=none;align=center;verticalAlign=middle;whiteSpace=wrap;rounded=0;fontFamily=Arial;fontSize=10;rotation=90;fontStyle=2" parent="m8tGLTJIxdYSyH3AfNJf-2" vertex="1">
          <mxGeometry x="320" y="-174" width="88.74" height="19.68" as="geometry" />
        </mxCell>
        <mxCell id="UN5E2BRM_m0n_mUQd9ct-83" value="&lt;span style=&quot;font-size: 14pt; line-height: 150%;&quot;&gt;ВлГУ.09.03.04.04.25 Чертеж 2&lt;/span&gt;" style="text;html=1;strokeColor=none;fillColor=none;align=center;verticalAlign=middle;whiteSpace=wrap;rounded=0;fontFamily=Arial;fontSize=10;rotation=90;fontStyle=2" parent="m8tGLTJIxdYSyH3AfNJf-2" vertex="1">
          <mxGeometry x="189" y="188" width="471.33" height="56.74" as="geometry" />
        </mxCell>
        <mxCell id="UN5E2BRM_m0n_mUQd9ct-84" value="ПРИ-120" style="text;html=1;strokeColor=none;fillColor=none;align=center;verticalAlign=middle;whiteSpace=wrap;rounded=0;fontFamily=Arial;fontSize=10;rotation=90;fontStyle=2" parent="m8tGLTJIxdYSyH3AfNJf-2" vertex="1">
          <mxGeometry x="209" y="325" width="195.71" height="57.81" as="geometry" />
        </mxCell>
        <mxCell id="UN5E2BRM_m0n_mUQd9ct-85" value="&lt;font style=&quot;&quot;&gt;&lt;p style=&quot;&quot; align=&quot;center&quot; class=&quot;MsoNormal&quot;&gt;&lt;i style=&quot;background-color: initial;&quot;&gt;&lt;font style=&quot;font-size: 16px;&quot;&gt;Разработка мобильного&lt;br&gt;приложения «Многозадачный календарь»&lt;/font&gt;&lt;/i&gt;&lt;/p&gt;&lt;font size=&quot;3&quot;&gt;Чертеж 2 - Схема работы приложения&lt;/font&gt;&lt;br&gt;&lt;/font&gt;" style="text;html=1;strokeColor=none;fillColor=none;align=center;verticalAlign=middle;whiteSpace=wrap;rounded=0;fontFamily=Arial;fontSize=10;rotation=90;fontStyle=2" parent="m8tGLTJIxdYSyH3AfNJf-2" vertex="1">
          <mxGeometry x="199" y="60" width="274.46" height="116.09" as="geometry" />
        </mxCell>
        <mxCell id="nH3biu1hZBNOihEQFcV8-1" value="" style="rounded=0;whiteSpace=wrap;html=1;fillColor=none;rotation=0;fontFamily=Arial;fontStyle=2" vertex="1" parent="1">
          <mxGeometry x="-3783" y="2247" width="318" height="811" as="geometry" />
        </mxCell>
        <mxCell id="nH3biu1hZBNOihEQFcV8-3" value="" style="group;rotation=90;fontFamily=Arial;fontStyle=2" vertex="1" connectable="0" parent="1">
          <mxGeometry x="-3321" y="2682" width="728.8990000000006" height="177.16799999999967" as="geometry" />
        </mxCell>
        <mxCell id="nH3biu1hZBNOihEQFcV8-4" value="" style="rounded=0;whiteSpace=wrap;html=1;fillColor=none;rotation=90;fontFamily=Arial;fontStyle=2" vertex="1" parent="nH3biu1hZBNOihEQFcV8-3">
          <mxGeometry width="728.35" height="177.165" as="geometry" />
        </mxCell>
        <mxCell id="nH3biu1hZBNOihEQFcV8-5" value="" style="rounded=0;whiteSpace=wrap;html=1;fillColor=none;rotation=90;fontFamily=Arial;fontStyle=2" vertex="1" parent="nH3biu1hZBNOihEQFcV8-3">
          <mxGeometry x="391" y="-271" width="27.558999999999997" height="19.685" as="geometry" />
        </mxCell>
        <mxCell id="nH3biu1hZBNOihEQFcV8-6" value="" style="rounded=0;whiteSpace=wrap;html=1;fillColor=none;rotation=90;fontFamily=Arial;fontStyle=2" vertex="1" parent="nH3biu1hZBNOihEQFcV8-3">
          <mxGeometry x="371" y="-271" width="27.558999999999997" height="19.685" as="geometry" />
        </mxCell>
        <mxCell id="nH3biu1hZBNOihEQFcV8-7" value="" style="rounded=0;whiteSpace=wrap;html=1;fillColor=none;rotation=90;fontFamily=Arial;fontStyle=2" vertex="1" parent="nH3biu1hZBNOihEQFcV8-3">
          <mxGeometry x="411" y="-271" width="27.558999999999997" height="19.685" as="geometry" />
        </mxCell>
        <mxCell id="nH3biu1hZBNOihEQFcV8-8" value="" style="rounded=0;whiteSpace=wrap;html=1;fillColor=none;rotation=90;fontFamily=Arial;fontStyle=2" vertex="1" parent="nH3biu1hZBNOihEQFcV8-3">
          <mxGeometry x="385" y="-238" width="39.37" height="19.685" as="geometry" />
        </mxCell>
        <mxCell id="nH3biu1hZBNOihEQFcV8-9" value="" style="rounded=0;whiteSpace=wrap;html=1;fillColor=none;rotation=90;fontFamily=Arial;fontStyle=2" vertex="1" parent="nH3biu1hZBNOihEQFcV8-3">
          <mxGeometry x="365" y="-238" width="39.37" height="19.685" as="geometry" />
        </mxCell>
        <mxCell id="nH3biu1hZBNOihEQFcV8-10" value="" style="rounded=0;whiteSpace=wrap;html=1;fillColor=none;rotation=90;fontFamily=Arial;fontStyle=2" vertex="1" parent="nH3biu1hZBNOihEQFcV8-3">
          <mxGeometry x="405" y="-238" width="39.37" height="19.685" as="geometry" />
        </mxCell>
        <mxCell id="nH3biu1hZBNOihEQFcV8-11" value="" style="rounded=0;whiteSpace=wrap;html=1;fillColor=none;rotation=90;fontFamily=Arial;fontStyle=2" vertex="1" parent="nH3biu1hZBNOihEQFcV8-3">
          <mxGeometry x="360" y="-173" width="90.551" height="19.685" as="geometry" />
        </mxCell>
        <mxCell id="nH3biu1hZBNOihEQFcV8-12" value="" style="rounded=0;whiteSpace=wrap;html=1;fillColor=none;rotation=90;fontFamily=Arial;fontStyle=2" vertex="1" parent="nH3biu1hZBNOihEQFcV8-3">
          <mxGeometry x="360" y="-172" width="90.551" height="19.685" as="geometry" />
        </mxCell>
        <mxCell id="nH3biu1hZBNOihEQFcV8-13" value="" style="rounded=0;whiteSpace=wrap;html=1;fillColor=none;rotation=90;fontFamily=Arial;fontStyle=2" vertex="1" parent="nH3biu1hZBNOihEQFcV8-3">
          <mxGeometry x="379" y="-173" width="90.551" height="19.685" as="geometry" />
        </mxCell>
        <mxCell id="nH3biu1hZBNOihEQFcV8-14" value="" style="rounded=0;whiteSpace=wrap;html=1;fillColor=none;rotation=90;fontFamily=Arial;fontStyle=2" vertex="1" parent="nH3biu1hZBNOihEQFcV8-3">
          <mxGeometry x="375" y="-98" width="59.055" height="19.685" as="geometry" />
        </mxCell>
        <mxCell id="nH3biu1hZBNOihEQFcV8-15" value="" style="rounded=0;whiteSpace=wrap;html=1;fillColor=none;rotation=90;fontFamily=Arial;fontStyle=2" vertex="1" parent="nH3biu1hZBNOihEQFcV8-3">
          <mxGeometry x="355" y="-98" width="59.055" height="19.685" as="geometry" />
        </mxCell>
        <mxCell id="nH3biu1hZBNOihEQFcV8-16" value="" style="rounded=0;whiteSpace=wrap;html=1;fillColor=none;rotation=90;fontFamily=Arial;fontStyle=2" vertex="1" parent="nH3biu1hZBNOihEQFcV8-3">
          <mxGeometry x="395" y="-98" width="59.055" height="19.685" as="geometry" />
        </mxCell>
        <mxCell id="nH3biu1hZBNOihEQFcV8-17" value="" style="rounded=0;whiteSpace=wrap;html=1;fillColor=none;rotation=90;fontFamily=Arial;fontStyle=2" vertex="1" parent="nH3biu1hZBNOihEQFcV8-3">
          <mxGeometry x="384" y="-49" width="39.37" height="19.685" as="geometry" />
        </mxCell>
        <mxCell id="nH3biu1hZBNOihEQFcV8-18" value="" style="rounded=0;whiteSpace=wrap;html=1;fillColor=none;rotation=90;fontFamily=Arial;fontStyle=2" vertex="1" parent="nH3biu1hZBNOihEQFcV8-3">
          <mxGeometry x="365" y="-49" width="39.37" height="19.685" as="geometry" />
        </mxCell>
        <mxCell id="nH3biu1hZBNOihEQFcV8-19" value="" style="rounded=0;whiteSpace=wrap;html=1;fillColor=none;rotation=90;fontFamily=Arial;fontStyle=2" vertex="1" parent="nH3biu1hZBNOihEQFcV8-3">
          <mxGeometry x="405" y="-49" width="39.37" height="19.685" as="geometry" />
        </mxCell>
        <mxCell id="nH3biu1hZBNOihEQFcV8-20" value="" style="rounded=0;whiteSpace=wrap;html=1;fillColor=none;rotation=90;fontFamily=Arial;fontStyle=2" vertex="1" parent="nH3biu1hZBNOihEQFcV8-3">
          <mxGeometry x="187" y="187" width="472.43" height="59.055" as="geometry" />
        </mxCell>
        <mxCell id="nH3biu1hZBNOihEQFcV8-21" value="Изм." style="text;html=1;strokeColor=none;fillColor=none;align=center;verticalAlign=middle;whiteSpace=wrap;rounded=0;fontFamily=Arial;fontSize=10;rotation=90;fontStyle=2" vertex="1" parent="nH3biu1hZBNOihEQFcV8-3">
          <mxGeometry x="371" y="-272" width="27.558999999999997" height="19.685" as="geometry" />
        </mxCell>
        <mxCell id="nH3biu1hZBNOihEQFcV8-22" value="Лист" style="text;html=1;strokeColor=none;fillColor=none;align=center;verticalAlign=middle;whiteSpace=wrap;rounded=0;fontFamily=Arial;fontSize=10;rotation=90;fontStyle=2" vertex="1" parent="nH3biu1hZBNOihEQFcV8-3">
          <mxGeometry x="366" y="-237" width="39.37" height="19.685" as="geometry" />
        </mxCell>
        <mxCell id="nH3biu1hZBNOihEQFcV8-23" value="№ докум." style="text;html=1;strokeColor=none;fillColor=none;align=center;verticalAlign=middle;whiteSpace=wrap;rounded=0;fontFamily=Arial;fontSize=10;rotation=90;fontStyle=2" vertex="1" parent="nH3biu1hZBNOihEQFcV8-3">
          <mxGeometry x="339" y="-172" width="90.551" height="19.68" as="geometry" />
        </mxCell>
        <mxCell id="nH3biu1hZBNOihEQFcV8-24" value="Подп" style="text;html=1;strokeColor=none;fillColor=none;align=center;verticalAlign=middle;whiteSpace=wrap;rounded=0;fontFamily=Arial;fontSize=10;rotation=90;fontStyle=2" vertex="1" parent="nH3biu1hZBNOihEQFcV8-3">
          <mxGeometry x="355" y="-99" width="59.055" height="19.68" as="geometry" />
        </mxCell>
        <mxCell id="nH3biu1hZBNOihEQFcV8-25" value="Дата" style="text;html=1;strokeColor=none;fillColor=none;align=center;verticalAlign=middle;whiteSpace=wrap;rounded=0;fontFamily=Arial;fontSize=10;rotation=90;fontStyle=2" vertex="1" parent="nH3biu1hZBNOihEQFcV8-3">
          <mxGeometry x="364" y="-49" width="39.37" height="19.685" as="geometry" />
        </mxCell>
        <mxCell id="nH3biu1hZBNOihEQFcV8-26" value="" style="rounded=0;whiteSpace=wrap;html=1;fillColor=none;rotation=90;fontFamily=Arial;fontStyle=2" vertex="1" parent="nH3biu1hZBNOihEQFcV8-3">
          <mxGeometry x="331" y="-251" width="66.929" height="19.68" as="geometry" />
        </mxCell>
        <mxCell id="nH3biu1hZBNOihEQFcV8-27" value="" style="rounded=0;whiteSpace=wrap;html=1;fillColor=none;rotation=90;fontFamily=Arial;fontStyle=2" vertex="1" parent="nH3biu1hZBNOihEQFcV8-3">
          <mxGeometry x="311" y="-251" width="66.929" height="19.68" as="geometry" />
        </mxCell>
        <mxCell id="nH3biu1hZBNOihEQFcV8-28" value="" style="rounded=0;whiteSpace=wrap;html=1;fillColor=none;rotation=90;fontFamily=Arial;fontStyle=2" vertex="1" parent="nH3biu1hZBNOihEQFcV8-3">
          <mxGeometry x="292" y="-251" width="66.929" height="19.68" as="geometry" />
        </mxCell>
        <mxCell id="nH3biu1hZBNOihEQFcV8-29" value="" style="rounded=0;whiteSpace=wrap;html=1;fillColor=none;rotation=90;fontFamily=Arial;fontStyle=2" vertex="1" parent="nH3biu1hZBNOihEQFcV8-3">
          <mxGeometry x="272" y="-251" width="66.929" height="19.68" as="geometry" />
        </mxCell>
        <mxCell id="nH3biu1hZBNOihEQFcV8-30" value="" style="rounded=0;whiteSpace=wrap;html=1;fillColor=none;rotation=90;fontFamily=Arial;fontStyle=2" vertex="1" parent="nH3biu1hZBNOihEQFcV8-3">
          <mxGeometry x="252" y="-251" width="66.929" height="19.68" as="geometry" />
        </mxCell>
        <mxCell id="nH3biu1hZBNOihEQFcV8-31" value="" style="rounded=0;whiteSpace=wrap;html=1;fillColor=none;rotation=90;fontFamily=Arial;fontStyle=2" vertex="1" parent="nH3biu1hZBNOihEQFcV8-3">
          <mxGeometry x="339" y="-173" width="90.551" height="19.68" as="geometry" />
        </mxCell>
        <mxCell id="nH3biu1hZBNOihEQFcV8-32" value="" style="rounded=0;whiteSpace=wrap;html=1;fillColor=none;rotation=90;fontFamily=Arial;fontStyle=2" vertex="1" parent="nH3biu1hZBNOihEQFcV8-3">
          <mxGeometry x="280" y="-173" width="90.551" height="19.68" as="geometry" />
        </mxCell>
        <mxCell id="nH3biu1hZBNOihEQFcV8-33" value="" style="rounded=0;whiteSpace=wrap;html=1;fillColor=none;rotation=90;fontFamily=Arial;fontStyle=2" vertex="1" parent="nH3biu1hZBNOihEQFcV8-3">
          <mxGeometry x="260" y="-173" width="90.551" height="19.68" as="geometry" />
        </mxCell>
        <mxCell id="nH3biu1hZBNOihEQFcV8-34" value="" style="rounded=0;whiteSpace=wrap;html=1;fillColor=none;rotation=90;fontFamily=Arial;fontStyle=2" vertex="1" parent="nH3biu1hZBNOihEQFcV8-3">
          <mxGeometry x="240" y="-173" width="90.551" height="19.68" as="geometry" />
        </mxCell>
        <mxCell id="nH3biu1hZBNOihEQFcV8-35" value="" style="rounded=0;whiteSpace=wrap;html=1;fillColor=none;rotation=90;fontFamily=Arial;fontStyle=2" vertex="1" parent="nH3biu1hZBNOihEQFcV8-3">
          <mxGeometry x="335" y="-98" width="59.055" height="19.68" as="geometry" />
        </mxCell>
        <mxCell id="nH3biu1hZBNOihEQFcV8-36" value="" style="rounded=0;whiteSpace=wrap;html=1;fillColor=none;rotation=90;fontFamily=Arial;fontStyle=2" vertex="1" parent="nH3biu1hZBNOihEQFcV8-3">
          <mxGeometry x="315" y="-98" width="59.055" height="19.68" as="geometry" />
        </mxCell>
        <mxCell id="nH3biu1hZBNOihEQFcV8-37" value="" style="rounded=0;whiteSpace=wrap;html=1;fillColor=none;rotation=90;fontFamily=Arial;fontStyle=2" vertex="1" parent="nH3biu1hZBNOihEQFcV8-3">
          <mxGeometry x="296" y="-98" width="59.055" height="19.68" as="geometry" />
        </mxCell>
        <mxCell id="nH3biu1hZBNOihEQFcV8-38" value="" style="rounded=0;whiteSpace=wrap;html=1;fillColor=none;rotation=90;fontFamily=Arial;fontStyle=2" vertex="1" parent="nH3biu1hZBNOihEQFcV8-3">
          <mxGeometry x="276" y="-98" width="59.055" height="19.68" as="geometry" />
        </mxCell>
        <mxCell id="nH3biu1hZBNOihEQFcV8-39" value="" style="rounded=0;whiteSpace=wrap;html=1;fillColor=none;rotation=90;fontFamily=Arial;fontStyle=2" vertex="1" parent="nH3biu1hZBNOihEQFcV8-3">
          <mxGeometry x="256" y="-98" width="59.055" height="19.68" as="geometry" />
        </mxCell>
        <mxCell id="nH3biu1hZBNOihEQFcV8-40" value="" style="rounded=0;whiteSpace=wrap;html=1;fillColor=none;rotation=90;fontFamily=Arial;fontStyle=2" vertex="1" parent="nH3biu1hZBNOihEQFcV8-3">
          <mxGeometry x="345" y="-49" width="39.37" height="19.68" as="geometry" />
        </mxCell>
        <mxCell id="nH3biu1hZBNOihEQFcV8-41" value="" style="rounded=0;whiteSpace=wrap;html=1;fillColor=none;rotation=90;fontFamily=Arial;fontStyle=2" vertex="1" parent="nH3biu1hZBNOihEQFcV8-3">
          <mxGeometry x="325" y="-49" width="39.37" height="19.68" as="geometry" />
        </mxCell>
        <mxCell id="nH3biu1hZBNOihEQFcV8-42" value="" style="rounded=0;whiteSpace=wrap;html=1;fillColor=none;rotation=90;fontFamily=Arial;fontStyle=2" vertex="1" parent="nH3biu1hZBNOihEQFcV8-3">
          <mxGeometry x="305" y="-49" width="39.37" height="19.68" as="geometry" />
        </mxCell>
        <mxCell id="nH3biu1hZBNOihEQFcV8-43" value="" style="rounded=0;whiteSpace=wrap;html=1;fillColor=none;rotation=90;fontFamily=Arial;fontStyle=2" vertex="1" parent="nH3biu1hZBNOihEQFcV8-3">
          <mxGeometry x="286" y="-49" width="39.37" height="19.68" as="geometry" />
        </mxCell>
        <mxCell id="nH3biu1hZBNOihEQFcV8-44" value="" style="rounded=0;whiteSpace=wrap;html=1;fillColor=none;rotation=90;fontFamily=Arial;fontStyle=2" vertex="1" parent="nH3biu1hZBNOihEQFcV8-3">
          <mxGeometry x="266" y="-49" width="39.37" height="19.68" as="geometry" />
        </mxCell>
        <mxCell id="nH3biu1hZBNOihEQFcV8-45" value="" style="rounded=0;whiteSpace=wrap;html=1;fontFamily=Arial;fontSize=10;fillColor=none;rotation=90;fontStyle=2" vertex="1" parent="nH3biu1hZBNOihEQFcV8-3">
          <mxGeometry x="349" y="407" width="70.866" height="19.685" as="geometry" />
        </mxCell>
        <mxCell id="nH3biu1hZBNOihEQFcV8-46" value="2" style="rounded=0;whiteSpace=wrap;html=1;fontFamily=Arial;fontSize=10;fillColor=none;rotation=90;fontStyle=2" vertex="1" parent="nH3biu1hZBNOihEQFcV8-3">
          <mxGeometry x="320" y="398" width="70.866" height="39.37" as="geometry" />
        </mxCell>
        <mxCell id="nH3biu1hZBNOihEQFcV8-47" value="" style="rounded=0;whiteSpace=wrap;html=1;fontFamily=Arial;fontSize=10;fillColor=none;rotation=90;fontStyle=2" vertex="1" parent="nH3biu1hZBNOihEQFcV8-3">
          <mxGeometry x="351" y="339" width="66.929" height="19.685" as="geometry" />
        </mxCell>
        <mxCell id="nH3biu1hZBNOihEQFcV8-48" value="2" style="rounded=0;whiteSpace=wrap;html=1;fontFamily=Arial;fontSize=10;fillColor=none;rotation=90;fontStyle=2" vertex="1" parent="nH3biu1hZBNOihEQFcV8-3">
          <mxGeometry x="322" y="329" width="66.929" height="39.37" as="geometry" />
        </mxCell>
        <mxCell id="nH3biu1hZBNOihEQFcV8-49" value="" style="rounded=0;whiteSpace=wrap;html=1;fontFamily=Arial;fontSize=10;fillColor=none;rotation=90;fontStyle=2" vertex="1" parent="nH3biu1hZBNOihEQFcV8-3">
          <mxGeometry x="355" y="276" width="59.055" height="19.685" as="geometry" />
        </mxCell>
        <mxCell id="nH3biu1hZBNOihEQFcV8-50" value="ч" style="rounded=0;whiteSpace=wrap;html=1;fontFamily=Arial;fontSize=10;fillColor=none;rotation=90;fontStyle=2" vertex="1" parent="nH3biu1hZBNOihEQFcV8-3">
          <mxGeometry x="326" y="266" width="59.05" height="39.37" as="geometry" />
        </mxCell>
        <mxCell id="nH3biu1hZBNOihEQFcV8-51" value="" style="rounded=0;whiteSpace=wrap;html=1;fontFamily=Arial;fontSize=10;fillColor=none;rotation=90;fontStyle=2" vertex="1" parent="nH3biu1hZBNOihEQFcV8-3">
          <mxGeometry x="207" y="325" width="196.85" height="59.055" as="geometry" />
        </mxCell>
        <mxCell id="nH3biu1hZBNOihEQFcV8-52" value="Разраб" style="text;html=1;strokeColor=none;fillColor=none;align=center;verticalAlign=middle;whiteSpace=wrap;rounded=0;fontFamily=Arial;fontSize=10;rotation=90;fontStyle=2" vertex="1" parent="nH3biu1hZBNOihEQFcV8-3">
          <mxGeometry x="333" y="-251" width="66.929" height="19.68" as="geometry" />
        </mxCell>
        <mxCell id="nH3biu1hZBNOihEQFcV8-53" value="Пров" style="text;html=1;strokeColor=none;fillColor=none;align=center;verticalAlign=middle;whiteSpace=wrap;rounded=0;fontFamily=Arial;fontSize=10;rotation=90;fontStyle=2" vertex="1" parent="nH3biu1hZBNOihEQFcV8-3">
          <mxGeometry x="312" y="-252" width="66.929" height="19.68" as="geometry" />
        </mxCell>
        <mxCell id="nH3biu1hZBNOihEQFcV8-54" value="Н. Контр." style="text;html=1;strokeColor=none;fillColor=none;align=center;verticalAlign=middle;whiteSpace=wrap;rounded=0;fontFamily=Arial;fontSize=10;rotation=90;fontStyle=2" vertex="1" parent="nH3biu1hZBNOihEQFcV8-3">
          <mxGeometry x="272" y="-251" width="66.929" height="19.68" as="geometry" />
        </mxCell>
        <mxCell id="nH3biu1hZBNOihEQFcV8-55" value="Утв." style="text;html=1;strokeColor=none;fillColor=none;align=center;verticalAlign=middle;whiteSpace=wrap;rounded=0;fontFamily=Arial;fontSize=10;rotation=90;fontStyle=2" vertex="1" parent="nH3biu1hZBNOihEQFcV8-3">
          <mxGeometry x="252" y="-251" width="66.929" height="19.68" as="geometry" />
        </mxCell>
        <mxCell id="nH3biu1hZBNOihEQFcV8-56" value="Лит." style="text;html=1;strokeColor=none;fillColor=none;align=center;verticalAlign=middle;whiteSpace=wrap;rounded=0;fontFamily=Arial;fontSize=10;rotation=90;fontStyle=2" vertex="1" parent="nH3biu1hZBNOihEQFcV8-3">
          <mxGeometry x="355" y="276" width="59.055" height="19.68" as="geometry" />
        </mxCell>
        <mxCell id="nH3biu1hZBNOihEQFcV8-57" value="Лист" style="text;html=1;strokeColor=none;fillColor=none;align=center;verticalAlign=middle;whiteSpace=wrap;rounded=0;fontFamily=Arial;fontSize=10;rotation=90;fontStyle=2" vertex="1" parent="nH3biu1hZBNOihEQFcV8-3">
          <mxGeometry x="351" y="339" width="66.929" height="19.68" as="geometry" />
        </mxCell>
        <mxCell id="nH3biu1hZBNOihEQFcV8-58" value="Листов" style="text;html=1;strokeColor=none;fillColor=none;align=center;verticalAlign=middle;whiteSpace=wrap;rounded=0;fontFamily=Arial;fontSize=10;rotation=90;fontStyle=2" vertex="1" parent="nH3biu1hZBNOihEQFcV8-3">
          <mxGeometry x="349" y="407" width="69.75" height="19.68" as="geometry" />
        </mxCell>
        <mxCell id="nH3biu1hZBNOihEQFcV8-59" value="" style="rounded=0;whiteSpace=wrap;html=1;fillColor=none;rotation=90;fontFamily=Arial;fontStyle=2" vertex="1" parent="nH3biu1hZBNOihEQFcV8-3">
          <mxGeometry x="319" y="-173" width="90.551" height="19.685" as="geometry" />
        </mxCell>
        <mxCell id="nH3biu1hZBNOihEQFcV8-60" value="Рощина А.И." style="text;html=1;strokeColor=none;fillColor=none;align=center;verticalAlign=middle;whiteSpace=wrap;rounded=0;fontFamily=Arial;fontSize=10;rotation=90;fontStyle=2" vertex="1" parent="nH3biu1hZBNOihEQFcV8-3">
          <mxGeometry x="301" y="-173" width="88.74" height="19.68" as="geometry" />
        </mxCell>
        <mxCell id="nH3biu1hZBNOihEQFcV8-61" value="Парахин К.В." style="text;html=1;strokeColor=none;fillColor=none;align=center;verticalAlign=middle;whiteSpace=wrap;rounded=0;fontFamily=Arial;fontSize=10;rotation=90;fontStyle=2" vertex="1" parent="nH3biu1hZBNOihEQFcV8-3">
          <mxGeometry x="320" y="-174" width="88.74" height="19.68" as="geometry" />
        </mxCell>
        <mxCell id="nH3biu1hZBNOihEQFcV8-62" value="&lt;span style=&quot;font-size: 14pt; line-height: 150%;&quot;&gt;ВлГУ.09.03.04.04.25 Чертеж 2&lt;/span&gt;" style="text;html=1;strokeColor=none;fillColor=none;align=center;verticalAlign=middle;whiteSpace=wrap;rounded=0;fontFamily=Arial;fontSize=10;rotation=90;fontStyle=2" vertex="1" parent="nH3biu1hZBNOihEQFcV8-3">
          <mxGeometry x="189" y="188" width="471.33" height="56.74" as="geometry" />
        </mxCell>
        <mxCell id="nH3biu1hZBNOihEQFcV8-63" value="ПРИ-120" style="text;html=1;strokeColor=none;fillColor=none;align=center;verticalAlign=middle;whiteSpace=wrap;rounded=0;fontFamily=Arial;fontSize=10;rotation=90;fontStyle=2" vertex="1" parent="nH3biu1hZBNOihEQFcV8-3">
          <mxGeometry x="209" y="325" width="195.71" height="57.81" as="geometry" />
        </mxCell>
        <mxCell id="nH3biu1hZBNOihEQFcV8-64" value="&lt;font style=&quot;&quot;&gt;&lt;p style=&quot;&quot; align=&quot;center&quot; class=&quot;MsoNormal&quot;&gt;&lt;i style=&quot;background-color: initial;&quot;&gt;&lt;font style=&quot;font-size: 16px;&quot;&gt;Разработка мобильного&lt;br&gt;приложения «Многозадачный календарь»&lt;/font&gt;&lt;/i&gt;&lt;/p&gt;&lt;font size=&quot;3&quot;&gt;Чертеж 2 - Схема работы приложения&lt;/font&gt;&lt;br&gt;&lt;/font&gt;" style="text;html=1;strokeColor=none;fillColor=none;align=center;verticalAlign=middle;whiteSpace=wrap;rounded=0;fontFamily=Arial;fontSize=10;rotation=90;fontStyle=2" vertex="1" parent="nH3biu1hZBNOihEQFcV8-3">
          <mxGeometry x="199" y="60" width="274.46" height="116.09" as="geometry" />
        </mxCell>
      </root>
    </mxGraphModel>
  </diagram>
</mxfile>
